<?xml version="1.0" encoding="UTF-8" standalone="no"?>
<svg
   viewBox="0 0 800 800"
   version="1.1"
   id="svg29"
   width="800"
   height="800"
   sodipodi:docname="webUI_Logo_v2.svg"
   inkscape:version="1.3.2 (091e20e, 2023-11-25)"
   xmlns:inkscape="http://www.inkscape.org/namespaces/inkscape"
   xmlns:sodipodi="http://sodipodi.sourceforge.net/DTD/sodipodi-0.dtd"
   xmlns:xlink="http://www.w3.org/1999/xlink"
   xmlns="http://www.w3.org/2000/svg"
   xmlns:svg="http://www.w3.org/2000/svg">
  <sodipodi:namedview
     id="namedview1"
     pagecolor="#ffffff"
     bordercolor="#000000"
     borderopacity="0.25"
     inkscape:showpageshadow="2"
     inkscape:pageopacity="0.0"
     inkscape:pagecheckerboard="0"
     inkscape:deskcolor="#d1d1d1"
     inkscape:zoom="0.84164953"
     inkscape:cx="354.06662"
     inkscape:cy="417.03819"
     inkscape:window-width="1688"
     inkscape:window-height="1051"
     inkscape:window-x="43"
     inkscape:window-y="38"
     inkscape:window-maximized="1"
     inkscape:current-layer="svg29" />
  <defs
     id="defs29">
    <rect
       x="60"
       y="560"
       width="660"
       height="160"
       id="rect2" />
    <linearGradient
       xlink:href="#linearGradient3"
       id="linearGradient4"
       x1="-5.7220459e-06"
       y1="305.99948"
       x2="611.99896"
       y2="305.99948"
       gradientUnits="userSpaceOnUse"
       gradientTransform="matrix(1.3071917,0,0,1.3071917,-799.99997,1e-5)" />
    <linearGradient
       id="linearGradient3">
      <stop
         style="stop-color:#3d475c;stop-opacity:1;"
         offset="0"
         id="stop3" />
      <stop
         style="stop-color:#687899;stop-opacity:1;"
         offset="1"
         id="stop4" />
    </linearGradient>
  </defs>
  <rect
     style="fill:url(#linearGradient4);stroke:#fffdfd;stroke-width:11.2676"
     id="rect1"
     width="788.73236"
     height="788.73236"
     x="-794.36621"
     y="5.6338196"
     rx="112.67609"
     ry="112.67608"
     transform="rotate(-90)" />
  <!-- Hintergrund -->
  <!-- ESP-Chip (Quadrat) -->
  <!-- Pins oben (5 St端ck) -->
  <!-- Pins unten (5 St端ck) -->
  <!-- Pins links (5 St端ck) -->
  <!-- Pins rechts (5 St端ck) -->
  <!-- Innere Web-Elemente -->
  <!-- Der Innenbereich wird in einen eigenen Group-Bereich verschoben -->
  <text
     xml:space="preserve"
     style="font-size:53.3333px;font-family:Arial;-inkscape-font-specification:Arial;fill:#ffffff;fill-opacity:1;stroke:#ff57ff;stroke-width:9.984"
     x="55.084747"
     y="92.372879"
     id="text29"><tspan
       id="tspan29"
       x="55.084747"
       y="92.372879"
       style="font-size:53.3333px;fill:#ffffff;fill-opacity:1;stroke:#ffffff;stroke-opacity:1" /></text>
  <path
     style="fill:#ffffff;fill-opacity:1;stroke-width:6;stroke-dasharray:none"
     d="m 267.05628,503.47153 c -32.22781,-2.87649 -59.97585,-26.73113 -67.99491,-58.45436 -1.11145,-4.39688 -2.30529,-13.2844 -2.65293,-19.75 L 196,413.51152 h 20.77775 l 0.61716,11.24999 c 1.0481,19.10536 5.57408,29.87928 17.57484,41.83608 8.23132,8.2012 15.97451,12.68621 26.57405,15.39231 8.9774,2.29195 251.0815,2.29539 260.0798,0.004 15.7684,-4.0159 30.7614,-16.10786 37.852,-30.52785 6.8656,-13.96252 6.7038,-10.2443 6.3764,-146.57273 -0.2763,-115.09379 -0.3949,-122.18782 -2.1269,-127.38153 -5.2441,-15.72537 -15.5477,-28.5665 -28.2475,-35.20411 -13.9185,-7.27464 -3.7722,-6.79589 -144.0238,-6.79589 H 265.18692 l -7.87914,2.48905 c -14.07406,4.44597 -27.29276,15.77631 -33.71135,28.89539 -3.97583,8.12636 -5.52427,14.96916 -6.1999,27.39889 L 216.78319,205 H 196.5837 l 0.22677,-11.98848 c 0.28233,-14.94731 2.56528,-24.37519 8.84791,-36.53957 8.29289,-16.05653 23.41625,-29.67613 40.18156,-36.1861 15.28588,-5.93552 11.22005,-5.77436 145.64817,-5.77436 81.74379,0 125.22589,0.35414 129.16199,1.05146 26.0693,4.61953 47.5412,20.85732 58.4729,44.219 5.5629,11.88828 7.022,20.15679 7.6726,43.47953 l 0.5927,21.25002 h 63.3867 63.3867 l -0.2888,8.74999 -0.2891,8.75002 -63.2501,0.25738 -63.2499,0.25739 v 29.48508 29.48507 l 63.2499,0.25739 63.2501,0.25739 0.2891,8.74998 0.2888,8.75002 h -63.539 -63.5389 v 28.49998 28.50002 h 63.5389 63.539 l -0.2888,8.74999 -0.2891,8.74998 -63.098,0.25739 -63.0979,0.25738 -0.5925,21.24261 c -0.4573,16.39344 -1.0396,22.95466 -2.5505,28.74259 -8.6095,32.97944 -35.6357,55.9632 -69.3844,59.00606 -12.1924,1.09931 -235.43648,1.05785 -247.80415,-0.0461 z M 449.4904,419.45297 c -10.353,-1.9821 -19.5306,-9.17662 -23.5491,-18.46061 l -2.3576,-5.44672 -173.75001,-0.0189 -173.74999,-0.0189 v -9.49999 -9.5 H 250.56336 425.043 l 1.9706,-3.86256 c 2.7152,-5.32226 11.1326,-12.63001 16.754,-14.54544 2.5698,-0.8756 7.8953,-1.59201 11.8345,-1.59201 5.9762,0 8.1683,0.50279 13.2383,3.03628 11.8225,5.90774 17.6596,15.31695 17.6579,28.4637 -9e-4,6.82061 -0.4279,8.8557 -2.8966,13.80423 -6.3214,12.67125 -20.84,20.17807 -34.1113,17.63724 z M 196,338 h 21 v 18 h -21 z m 249.398,1.71779 c -8.0817,-2.89157 -13.1074,-6.76959 -17.1353,-13.22226 l -3.679,-5.89361 -174.25002,-0.0453 -174.24998,-0.0454 v -9.49999 -9.5 H 249.94783 423.812 l 1.6869,-4.41728 c 2.2973,-6.01535 8.2904,-12.56039 14.6911,-16.04406 4.1623,-2.26541 6.9543,-2.98518 12.8554,-3.31415 13.8153,-0.77016 24.1949,5.25214 30.2463,17.54906 2.8705,5.8331 3.2835,7.65222 3.226,14.208 -0.083,9.48114 -2.7625,15.95207 -9.2391,22.31369 -8.6517,8.49804 -21.3992,11.66124 -31.8806,7.91101 z M 196,280 c 0.18303,-5.6657 0,0 0,-17 h 21 v 17 c -21,0 -423.0515,0.0293 -21,0 z m 240.5837,-18.78372 c -6.6393,-3.17945 -10.9847,-6.96933 -14.1146,-12.31015 l -2.5755,-4.3946 H 247.98867 76.0837 v -9.5 -9.50003 H 246.89968 417.7157 L 420,220 c 5.7424,-13.85438 20.4614,-21.95984 35.052,-19.30238 7.2886,1.32752 12.3572,4.04315 17.5839,9.42096 6.266,6.44735 8.7583,13.6938 8.2174,23.89293 -0.6465,12.19011 -5.6848,20.40612 -15.9508,26.01124 -4.5305,2.47362 -6.6527,2.95472 -14.3188,3.246 -7.8591,0.29859 -9.6338,0.0386 -14,-2.05247 z"
     id="path1"
     sodipodi:nodetypes="cssccssscssssscssscccssscsscccccccccccccccccccccccscscccscccccccssssssccccccccscccccccsssscscccccccccccccccccscsssc" />
  <text
     xml:space="preserve"
     id="text1"
     style="font-size:133.333px;font-family:Arial;-inkscape-font-specification:Arial;white-space:pre;shape-inside:url(#rect2);fill:#ffffff;fill-opacity:1;stroke:none;stroke-width:10"
     transform="translate(9.25784,-13.300846)"><tspan
       x="60"
       y="685.37123"
       id="tspan4"><tspan
         style="font-weight:bold;font-family:Helvetica;-inkscape-font-specification:'Helvetica, Bold'"
         id="tspan2">EspWebUI</tspan></tspan></text>
</svg>
